<svg id="Layer_1" data-name="Layer 1" xmlns="http://www.w3.org/2000/svg" viewBox="0 0 475 393.73"><title>vr2</title><path d="M562.39,316.27H500l-64.29-124h-1.08q2.28,29.25,2.29,44.66v79.33H394.81v-176h62.12l64,122.31h.73Q520,236,520,219.85V140.27h42.38Z" transform="translate(-339 -140.27)"/><path d="M756.06,140.27V246.21q0,34.56-19.56,53.51t-56.4,19q-36,0-55.31-18.42t-19.33-53v-107h47.8V243.56q0,18.66,7,27.09t20.58,8.43q14.56,0,21.13-8.37t6.56-27.39v-103Z" transform="translate(-339 -140.27)"/><path d="M339.37,394.16c-.54,8.81-.38,25.18-.2,35.72-.18,10.54-.34,26.91.2,35.72.83,13.68,16.67,18.24,16.67,18.24V375.92S340.2,380.48,339.37,394.16Z" transform="translate(-339 -140.27)"/><path d="M813.63,394.16c.54,8.81.38,25.18.2,35.72.18,10.54.34,26.91-.2,35.72C812.8,479.28,797,483.84,797,483.84V375.92S812.8,380.48,813.63,394.16Z" transform="translate(-339 -140.27)"/><path d="M747.52,325h-342c-22.61,0-41.1,19.75-41.1,43.89V490.11c0,24.14,18.49,43.89,41.1,43.89H540.61c0-19.76,6.71-37.24,35.89-37.24s35.89,17.48,35.89,37.24H747.52c22.61,0,41.1-19.75,41.1-43.89V368.89C788.62,344.75,770.13,325,747.52,325ZM507.64,513.66H452.35L395.64,339.84h52.79l23.66,88.1q7.37,29.37,8.08,40.9.84-8.32,3.33-20.81t4.4-19.62L512,339.84h52.55Zm206.49,0-36.86-63.25H665.38v63.25h-47V339.84h57q70.86,0,70.86,51.36,0,30.19-29.48,46.73l50.65,75.73Z" transform="translate(-339 -140.27)"/><path d="M674.66,375.39h-9.28V415.1h8.8q24.62,0,24.61-21.76Q698.79,375.39,674.66,375.39Z" transform="translate(-339 -140.27)"/></svg>